<?xml version="1.0" standalone="no"?><!DOCTYPE svg PUBLIC "-//W3C//DTD SVG 1.1//EN" "http://www.w3.org/Graphics/SVG/1.1/DTD/svg11.dtd"><svg t="1761040565755" class="icon" viewBox="0 0 1024 1024" version="1.1" xmlns="http://www.w3.org/2000/svg" p-id="5208" xmlns:xlink="http://www.w3.org/1999/xlink" width="200" height="200"><path d="M64 1024h960V576H64z" fill="#40B6E0" fill-opacity=".7" p-id="5209"></path><path d="M448 64L192 320h256z" fill="#9AA7B0" fill-opacity=".8" p-id="5210"></path><path d="M512 64v320H192v128h640V64z" fill="#9AA7B0" fill-opacity=".8" p-id="5211"></path><path d="M446.272 736.128c0-23.616 19.904-32.128 55.808-32.128H576v-64H503.04C433.792 640 384 669.44 384 732.8c0 55.36 26.88 79.36 94.144 93.824 49.28 10.56 65.6 20.032 65.6 40.448 0 20.48-22.912 28.928-65.6 28.928H403.2v64h74.944C608 960 608 896 608 867.072c0-40.448-30.72-72.128-85.824-89.664-55.168-17.536-75.904-17.728-75.904-41.28zM640 640h59.904l100.096 128 94.656-128H960v320h-64v-211.2l-96 115.2-96-115.2V960h-64zM265.6 832l-41.856-102.4L182.4 832h83.2z m-66.624-192h49.984L384 960H313.6l-32-64H166.4l-32 64H64l134.976-320z" fill="#231F20" fill-opacity=".7" p-id="5212"></path></svg>