<?xml version="1.0" standalone="no"?><!DOCTYPE svg PUBLIC "-//W3C//DTD SVG 1.1//EN" "http://www.w3.org/Graphics/SVG/1.1/DTD/svg11.dtd"><svg t="1761040769770" class="icon" viewBox="0 0 1024 1024" version="1.1" xmlns="http://www.w3.org/2000/svg" p-id="2119" xmlns:xlink="http://www.w3.org/1999/xlink" width="200" height="200"><path d="M971.55922 475.737445l-89.983325-44.245001a46.762316 46.762316 0 0 0-41.173025-0.127999l-307.923024 149.076215a46.71965 46.71965 0 0 1-40.959692 0L183.639796 431.364445a46.762316 46.762316 0 0 0-41.173025 0.127999L52.44078 475.737445c-13.055902 6.399952-13.013236 26.026471 0.085333 32.341091l439.036707 212.521073c12.970569 6.314619 27.946457 6.314619 40.917026 0l438.994041-212.521073c13.098568-6.357286 13.141235-25.941139 0.085333-32.341091z m0 255.99808l-89.983325-44.245001a46.762316 46.762316 0 0 0-41.173025-0.127999l-307.923024 149.076215a46.71965 46.71965 0 0 1-40.959692 0L183.639796 687.362525a46.762316 46.762316 0 0 0-41.173025 0.127999L52.44078 731.735525c-13.055902 6.399952-13.013236 26.026471 0.085333 32.341091l439.036707 212.521073c12.970569 6.314619 27.946457 6.314619 40.917026 0l438.994041-212.521073c13.098568-6.357286 13.141235-25.941139 0.085333-32.341091zM488.106846 5.554305L52.44078 219.739365c-13.055902 6.399952-13.013236 26.026471 0.085333 32.341091l439.036707 212.521073c12.970569 6.314619 27.903791 6.314619 40.87436 0l439.036707-212.521073c13.098568-6.357286 13.141235-25.941139 0.085333-32.341091L535.93582 5.554305a54.058261 54.058261 0 0 0-47.828974 0z" fill="#333333" p-id="2120"></path></svg>