<?xml version="1.0" standalone="no"?><!DOCTYPE svg PUBLIC "-//W3C//DTD SVG 1.1//EN" "http://www.w3.org/Graphics/SVG/1.1/DTD/svg11.dtd"><svg t="1757735133826" class="icon" viewBox="0 0 1024 1024" version="1.1" xmlns="http://www.w3.org/2000/svg" p-id="7793" xmlns:xlink="http://www.w3.org/1999/xlink" width="200" height="200"><path d="M712 321.5a9.4 9.4 0 0 0-9.2-9.5l-76.2 0.4L512 453.3 397.5 312.5l-76.3-0.4a9.4 9.4 0 0 0-9.2 9.5 10 10 0 0 0 2.2 6.2l150 184.3-150 184.2a10 10 0 0 0-2.2 6.2 9.4 9.4 0 0 0 9.2 9.5l76.3-0.4L512 570.7l114.5 140.8 76.2 0.4a9.4 9.4 0 0 0 9.2-9.5 10 10 0 0 0-2.2-6.2L559.9 512l150-184.3a9.7 9.7 0 0 0 2.1-6.2z" p-id="7794" fill="#2c2c2c"></path><path d="M512 0C229.3 0 0 229.3 0 512s229.3 512 512 512 512-229.3 512-512S794.7 0 512 0z m0 937.1C277.3 937.1 86.9 746.7 86.9 512S277.3 86.9 512 86.9 937.1 277.3 937.1 512 746.7 937.1 512 937.1z" p-id="7795" fill="#2c2c2c"></path></svg>