<?xml version="1.0" standalone="no"?><!DOCTYPE svg PUBLIC "-//W3C//DTD SVG 1.1//EN" "http://www.w3.org/Graphics/SVG/1.1/DTD/svg11.dtd"><svg t="1758534870444" class="icon" viewBox="0 0 1024 1024" version="1.1" xmlns="http://www.w3.org/2000/svg" p-id="34812" xmlns:xlink="http://www.w3.org/1999/xlink" width="200" height="200"><path d="M904.5248 554.7264l-39.8592 9.1904c-24.9344 5.7344-50.176 8.6016-75.776 8.6016-42.88 0-84.3008-7.8848-124.1856-23.68a333.952 333.952 0 0 1-114.4064-75.136 333.952 333.952 0 0 1-75.136-114.4064 334.464 334.464 0 0 1-23.68-124.2112c0-25.5744 2.8672-50.816 8.6016-75.7504l9.1904-39.8592-39.8848 9.1904a386.048 386.048 0 0 0-116.7872 47.9488 385.7664 385.7664 0 0 0-100.0448 88.7552A385.7664 385.7664 0 0 0 148.48 382.7712 386.048 386.048 0 0 0 128 507.392c0 49.408 9.088 97.1008 27.2896 143.0528a384.64 384.64 0 0 0 86.528 131.7632 384.64 384.64 0 0 0 131.7632 86.528A385.2288 385.2288 0 0 0 516.608 896a386.048 386.048 0 0 0 124.5952-20.5056 385.7664 385.7664 0 0 0 117.4016-64.0512 385.7664 385.7664 0 0 0 88.7552-100.0448 386.048 386.048 0 0 0 47.9488-116.7872l9.216-39.8848z m-69.9904 66.304c-15.104 1.792-30.3104 2.688-45.6192 2.688-49.408 0-97.1008-9.088-143.0528-27.2896a384.64 384.64 0 0 1-131.7632-86.528 384.64 384.64 0 0 1-86.528-131.7632 385.2288 385.2288 0 0 1-27.2896-143.0528c0-15.3088 0.896-30.5152 2.6624-45.6192-59.6224 20.8384-109.7472 56.7552-150.3488 107.776C203.6736 358.7328 179.2 428.8 179.2 507.392c0 42.9056 7.8848 84.3008 23.68 124.2112a333.952 333.952 0 0 0 75.1616 114.3808 333.952 333.952 0 0 0 114.3808 75.136c39.9104 15.7952 81.3056 23.7056 124.2112 23.7056 78.592 0 148.6336-24.4736 210.1248-73.3952 51.0208-40.6016 86.9376-90.7264 107.776-150.3488z" p-id="34813" fill="#ffffff"></path></svg>