<?xml version="1.0" standalone="no"?><!DOCTYPE svg PUBLIC "-//W3C//DTD SVG 1.1//EN" "http://www.w3.org/Graphics/SVG/1.1/DTD/svg11.dtd"><svg t="1761105399663" class="icon" viewBox="0 0 1024 1024" version="1.1" xmlns="http://www.w3.org/2000/svg" p-id="17510" xmlns:xlink="http://www.w3.org/1999/xlink" width="200" height="200"><path d="M506.88 95.232c-47.104 0-84.992 37.888-84.992 84.992s37.888 84.992 84.992 84.992c47.104 0 84.992-37.888 84.992-84.992s-37.888-84.992-84.992-84.992zM173.568 694.784c-47.104 0-84.992 37.888-84.992 84.992 0 47.104 37.888 84.992 84.992 84.992 47.104 0 84.992-37.888 84.992-84.992s-38.4-84.992-84.992-84.992z m676.864-8.192c-47.104 0-84.992 37.888-84.992 84.992s37.888 84.992 84.992 84.992c47.104 0 84.992-37.888 84.992-84.992s-37.888-84.992-84.992-84.992z m-115.2-109.056c0 114.176-87.552 208.384-199.168 218.112v132.608c83.968-4.608 159.744-38.912 217.6-92.16-13.312-18.944-20.992-41.472-20.992-66.56 0-64.512 52.224-116.224 116.224-116.224 3.584 0 6.656 0 9.728 0.512 5.632-24.576 8.704-50.688 8.704-76.8 0-61.952-16.384-120.832-44.544-171.52l-112.64 70.144c16.384 31.232 25.088 65.536 25.088 101.888zM516.096 358.4c69.12 0 131.072 32.256 171.008 82.432l113.152-70.656c-46.08-62.976-113.152-110.592-190.464-131.584-19.968 36.352-58.368 60.928-102.4 60.928-42.496 0-79.36-22.528-99.84-56.32-74.24 24.064-137.216 72.192-180.736 134.656L339.456 448c39.936-54.272 103.936-89.6 176.64-89.6zM296.96 577.536c0-33.28 7.168-64.512 20.48-92.672L204.288 414.72c-25.6 48.64-39.936 104.448-39.936 163.328 0 29.696 3.584 58.88 10.752 86.528h1.536c64.512 0 116.224 52.224 116.224 116.224 0 20.48-5.12 39.424-14.336 56.32 57.344 52.736 132.096 86.016 214.528 91.648v-133.12c-110.08-11.776-196.096-104.96-196.096-218.112z" fill="#ea9518" p-id="17511"></path></svg>