<?xml version="1.0" standalone="no"?><!DOCTYPE svg PUBLIC "-//W3C//DTD SVG 1.1//EN" "http://www.w3.org/Graphics/SVG/1.1/DTD/svg11.dtd"><svg t="1761041175148" class="icon" viewBox="0 0 1184 1024" version="1.1" xmlns="http://www.w3.org/2000/svg" p-id="17151" xmlns:xlink="http://www.w3.org/1999/xlink" width="231.25" height="200"><path d="M532.196828 1023.167141c-19.572184-1.665718-37.895079-9.994307-52.05368-23.320049-13.325742-12.909313-21.654331-27.900773-25.818626-45.807238-1.665718-7.912159-1.665718-25.818625 0-33.730785 7.49573-34.563644 33.314355-60.798699 67.877999-68.294429 8.328589-1.665718 23.320049-2.082147 32.065067-0.416429 33.314355 5.830012 60.798699 31.232208 68.710859 63.713704 3.331436 12.492883 3.747865 24.152908 0.832858 27.900773-0.832859 0.832859-2.082147 2.498577-3.331435 3.331436-1.665718 1.249288-2.498577 1.249288-67.04514 1.665717-64.546564 0.416429-65.379423 0.416429-67.878 1.665718-3.331436 1.665718-5.413583 5.413583-5.413582 9.577877 0 3.747865 3.747865 10.827166 9.161447 17.906466 9.161448 11.243595 22.07076 19.572184 37.062221 22.48719 9.161448 2.082147 21.654331 1.249288 29.98292-1.249288 7.49573-2.082147 14.158601-5.413583 19.572183-9.161448 7.079301-5.413583 9.994307-5.830012 14.99146-3.331435 3.747865 1.665718 6.246442 5.830012 6.246442 10.410736 0 4.164294-1.665718 6.662871-6.246442 10.410736-12.076454 9.161448-27.900773 15.407889-41.642944 16.657178-9.161448 0-10.827166 0.416429-17.073607-0.41643z m61.215128-99.110207c4.580724-3.331436 6.246442-8.745018 3.747865-14.575031-5.413583-11.660024-16.657178-23.320049-29.150061-29.56649-9.161448-4.580724-17.490037-6.662871-27.900773-6.662871-14.99146 0-26.651484 3.747865-38.727938 12.909312-10.410736 7.912159-20.405043 21.654331-20.405042 28.733632 0 4.580724 2.498577 8.745018 6.662871 10.410736 1.249288 0.416429 19.572184 0.416429 52.886539 0.416429 50.387963-0.416429 51.220821-0.416429 52.886539-1.665717z m311.905653 99.526637c-7.079301-0.832859-19.988613-3.747865-27.067914-6.246442s-16.657178-7.079301-22.48719-10.410736c-5.413583-2.915006-7.079301-4.164294-8.328589-6.246442-4.164294-7.079301 0-15.824319 7.91216-16.657178 2.915006-0.416429 4.164294 0 13.325742 4.580724 35.396503 17.490037 62.880846 16.657178 81.620171-2.082147 3.747865-4.164294 7.912159-10.827166 9.161447-15.824319 2.082147-8.328589 0.416429-18.322895-4.997153-24.985766-5.830012-7.912159-7.912159-9.161448-49.971533-31.648638-43.308662-22.903619-48.722245-26.651484-57.050834-37.47865-4.997153-6.662871-8.745018-13.742172-10.410736-20.405042-1.249288-4.164294-1.665718-7.079301-1.665718-13.325743 0-8.745018 0.832859-12.909313 4.164295-20.821472 7.912159-17.906466 27.484343-32.065067 50.804392-36.229361 4.580724-0.832859 8.328589-0.832859 17.490036-0.832859 12.492883 0.416429 19.988613 1.665718 31.232209 5.830012 9.161448 3.331436 21.654331 9.577877 24.152907 12.076454 6.246442 7.079301 1.249288 18.322895-7.912159 18.322895-2.498577 0-4.997153-0.832859-11.243595-3.747865-14.99146-7.079301-25.818625-9.994307-39.560797-9.994306-15.824319 0-29.150061 5.413583-38.311509 14.99146-9.161448 9.994307-10.827166 22.48719-4.580724 35.396502 2.498577 4.997153 12.076454 13.742172 18.322896 17.490037 2.915006 1.665718 19.155754 10.410736 36.229361 19.572184 36.229362 19.155754 40.393656 21.654331 47.889386 28.317202 8.328589 7.912159 13.742172 16.240748 16.657178 26.235055 1.249288 4.164294 1.665718 6.246442 1.665718 14.158601 0 8.328589 0 9.994307-2.082148 14.99146-2.082147 7.079301-3.747865 9.577877-7.912159 15.824319-13.742172 19.155754-41.226515 31.648638-67.04514 29.150061z m-900.320456-1.665718c-1.249288-0.832859-2.498577-2.082147-3.747865-3.331436l-1.249288-2.082147v-177.398943l1.665718-6.662871c6.662871-24.152908 24.569337-41.642944 47.889386-47.056527 3.331436-0.832859 10.410736-1.249288 32.897926-1.249288h32.065067c3.747865 0.416429 7.079301 2.082147 9.161448 4.997153s2.082147 9.161448 0 12.076454c-3.331436 4.580724-2.498577 4.580724-37.47865 4.580724-30.815779 0.416429-31.648638 0.416429-35.812932 1.665718-13.325742 4.997153-24.569337 17.490037-27.484344 31.648637-1.249288 5.413583-1.249288 41.226515-0.416429 45.39081 0.832859 2.915006 4.580724 7.49573 8.328589 9.577877 2.498577 1.249288 3.331436 1.665718 32.065067 1.665718 28.317202 0.416429 29.56649 0.416429 31.648638 1.665717 5.413583 3.331436 6.662871 10.827166 2.915006 15.824319-0.832859 1.249288-2.498577 2.915006-3.331436 3.331436-1.249288 0.832859-8.745018 0.832859-30.815779 1.249288-32.065067 0.416429-31.648638 0.416429-36.229361 4.164294-1.249288 0.832859-2.915006 2.915006-3.747865 4.580724-1.249288 2.915006-1.665718 2.915006-1.665718 45.807239l-0.416429 42.892233-1.665718 2.498576c-2.498577 5.413583-9.994307 7.079301-14.575031 4.164295z m123.679545 0c-3.331436-2.082147-4.580724-3.747865-5.413583-7.49573-0.416429-2.498577-0.832859-18.739325-0.416429-56.634404 0.416429-52.05368 0.416429-53.719398 1.665717-58.300122 2.082147-7.49573 4.580724-12.909313 8.328589-18.739325 11.660024-17.490037 30.815779-28.317202 52.053681-29.150061 9.577877-0.416429 13.325742 0 22.48719 3.331435 13.742172 4.580724 25.818625 12.909313 32.065067 21.654331 2.082147 3.331436 2.498577 4.580724 2.498576 7.079301 0 7.079301-6.662871 12.076454-13.325742 10.410736-1.665718-0.416429-4.164294-2.498577-7.0793-4.997153-10.827166-10.410736-20.821472-14.575031-34.147215-14.99146-12.492883 0-22.48719 4.164294-31.232208 12.492883-4.580724 4.164294-7.079301 8.745018-9.577877 14.57503l-1.665718 4.997154-0.416429 55.385116v54.968686l-2.082148 2.498577c-2.915006 4.164294-9.577877 5.830012-13.742171 2.915006z m200.302562 0.832859c-0.832859 0-3.747865-0.832859-6.662871-1.249289-26.651484-4.997153-50.804392-24.985767-61.631558-50.804392-13.742172-32.481497-6.662871-69.960146 18.322896-94.945913 23.736478-23.736478 58.716551-31.648638 90.781618-19.988613 19.988613 7.079301 38.311509 23.736478 47.889386 43.725092 5.413583 11.243595 9.161448 26.235055 8.328589 36.645791-0.416429 5.413583-1.249288 7.49573-4.580724 9.994306-1.665718 1.249288-2.498577 1.249288-67.46157 1.665718l-65.379422 0.416429-2.498577 1.665718c-5.830012 3.331436-6.662871 9.994307-2.915006 17.073607 2.915006 5.413583 8.745018 13.742172 12.492883 16.657178 8.745018 7.912159 20.405043 13.742172 31.648638 16.240748 5.413583 1.249288 17.490037 1.249288 23.736478 0.41643 9.161448-1.665718 18.739325-5.830012 27.067914-11.660025 4.997153-3.331436 7.912159-4.580724 11.243595-3.747865 5.413583 1.249288 8.745018 5.413583 8.745018 10.827166 0 3.747865-1.249288 6.246442-5.413582 9.577877-9.994307 8.328589-26.235055 15.407889-39.977227 17.073607-4.580724 0.832859-20.821472 1.249288-23.736478 0.41643z m64.546564-98.693778c3.747865-2.082147 5.413583-5.413583 5.413582-9.577877 0-2.498577-0.416429-4.164294-2.498576-7.91216-5.830012-10.827166-15.407889-20.405043-26.235055-26.235055-30.815779-17.073607-70.376576-4.580724-87.033754 27.067914-3.747865 7.49573-2.915006 12.909313 2.915006 16.657178l2.082147 1.665717h102.441643l2.915007-1.665717z m275.676291 98.277348c-2.915006-1.665718-4.164294-2.915006-5.413583-5.830012-0.832859-2.498577-0.832859-12.076454-0.832859-91.198048v-88.699471l1.665718-5.413583c2.082147-7.079301 5.830012-15.407889 9.577877-20.405043 9.161448-12.492883 23.320049-22.07076 38.311509-24.985766 12.076454-2.498577 40.810085-2.082147 50.804392 0.832859 21.237902 6.246442 37.895079 22.48719 43.308662 43.308662 2.915006 10.410736 2.915006 22.07076 0.416429 33.314355-1.249288 5.830012-7.49573 17.906466-11.660024 22.903619l-3.747865 4.164295 5.830012 2.498576c19.155754 8.745018 32.897926 24.985767 38.727938 45.807239 2.082147 7.079301 2.082147 24.569337 0.41643 31.648638-6.662871 26.651484-26.651484 46.223668-52.88654 51.637251-5.413583 1.249288-9.577877 1.249288-59.13298 1.249288-47.056527 0-53.719398 0-55.385116-0.832859z m112.435949-22.48719c20.821472-5.830012 34.147214-23.320049 34.147215-44.55795 0-23.320049-16.657178-42.475803-39.977227-45.390809-6.662871-0.832859-78.288735-0.832859-81.620171 0s-6.246442 3.747865-7.49573 6.246441c-0.832859 1.665718-0.832859 9.994307-0.832859 43.725092v41.642944l45.39081-0.416429c43.725092 0 44.97438 0 50.387962-1.249289z m-24.569337-114.518096c18.739325-4.580724 31.232208-22.07076 29.98292-41.226515-1.249288-17.073607-12.492883-31.232208-29.56649-36.229362-6.246442-1.665718-35.812932-1.665718-42.059374 0-14.158601 3.747865-24.985767 14.99146-28.733632 28.733632-1.249288 4.997153-1.249288 7.079301-1.249288 24.152907v18.739325l2.082147 2.498577c3.331436 4.164294 2.915006 4.164294 35.812932 4.164294 24.985767 0.416429 30.399349 0.416429 33.730785-0.832858z m252.772672 136.588857c-2.082147-0.832859-3.747865-2.498577-4.580724-4.580724l-1.665718-2.915006v-199.469703l1.665718-4.997154c3.747865-12.076454 14.158601-21.654331 26.651484-24.569337 5.830012-1.249288 40.810085-1.249288 50.387963 0.41643 26.235055 4.164294 48.722245 15.407889 67.04514 33.730785 47.056527 46.640098 47.056527 122.013827 0.41643 168.653924-15.407889 15.407889-34.563644 26.235055-54.552257 31.648638-13.742172 3.331436-17.490037 3.747865-51.220822 3.747865-30.399349-0.416429-31.232208-0.416429-34.147214-1.665718z m65.795852-23.736478c37.47865-4.164294 68.710858-29.98292 79.954453-65.795852 3.331436-9.994307 4.164294-17.073607 4.164294-28.317203 0-13.325742-1.665718-22.48719-6.246441-34.563643-10.827166-28.317202-35.812932-50.387963-65.379423-57.883693-9.577877-2.498577-15.407889-2.915006-34.980073-2.498577-17.490037 0.416429-18.739325 0.416429-20.405043 1.665718-0.832859 0.832859-2.498577 2.082147-3.331435 3.331436-1.249288 1.665718-1.249288 2.082147-1.249289 89.948759v87.866613l1.665718 2.082147c2.915006 4.164294 4.997153 4.580724 22.90362 4.580724 9.577877 0.416429 19.572184 0 22.903619-0.416429z m-563.012607-300.245629c-154.911753-8.328589-286.503457-121.180968-316.902806-271.511997-16.240748-81.203741-2.498577-166.571777 38.727938-234.449776 3.331436-5.413583 6.246442-10.827166 6.246442-12.076454 0-1.249288-2.498577-5.413583-5.413583-9.994306-17.073607-25.402196-38.727938-79.538024-44.55795-110.770232C185.727532 32.481497 191.557544 11.243595 205.716145 3.747865c9.994307-4.997153 29.56649-4.997153 47.056527 0.416429 27.900773 8.745018 67.04514 28.317202 97.860919 49.555104l16.240748 11.243595 14.99146-6.662871c73.708011-34.147214 158.659618-40.810085 238.197641-18.739325 25.818625 7.079301 59.132981 20.821472 78.288736 32.481497l8.745018 5.413582 16.240748-10.827165c31.648638-20.821472 69.960146-37.47865 104.52379-45.390809 38.727938-8.745018 61.631558-3.331436 71.625865 16.657177 3.747865 7.49573 4.164294 10.827166 4.164294 29.150061 0 12.076454-1.249288 25.818625-3.331436 33.730785-7.912159 34.980073-25.818625 75.790159-47.472956 108.271655l-12.076454 17.906466 3.331436 6.246442c6.246442 12.076454 16.240748 43.725092 20.405042 65.379423 22.903619 112.43595-12.076454 224.45547-94.113054 303.160634-59.96584 57.467263-133.257422 89.53233-217.792598 95.362342-14.158601 0.832859-26.235055 1.665718-27.484344 1.249289-0.832859 0.416429-6.662871 0-12.492883-0.41643z m61.631558-14.57503c19.988613-2.498577 55.385116-11.243595 74.957299-18.739325 79.538024-30.399349 143.251728-88.283042 178.648231-162.407483 17.490037-36.645791 26.235055-67.877999 30.39935-109.937373 4.164294-41.226515-3.331436-97.02806-17.906466-136.588857l-4.164295-10.410736-4.580724 5.413583c-7.079301 8.328589-15.407889 11.660024-31.648637 12.492883-10.827166 0.416429-18.322895 0-29.566491-2.915006-49.138674-12.492883-89.53233-47.889386-104.52379-92.030907-6.246442-18.322895-7.079301-43.308662-2.082147-56.634404 3.747865-9.161448 12.909313-18.739325 20.405043-20.405043 8.328589-1.665718 13.325742-4.164294 12.076453-6.246442-1.665718-2.915006-32.481497-17.906466-52.470109-25.402196-122.846686-45.807239-264.849126-14.575031-353.548597 78.288736-40.810085 42.892233-68.294429 94.113054-80.787312 150.747458-12.909313 58.716551-10.410736 111.603091 7.912159 169.903213 33.730785 105.773078 120.764538 188.226108 229.452623 216.54331 9.994307 2.498577 25.402196 5.830012 33.730785 7.0793 19.155754 2.915006 72.875153 3.747865 93.696625 1.249289z m-67.045141-35.812932c-116.600244-9.577877-206.965433-78.288735-251.523383-191.141115-8.745018-22.48719-17.490037-54.968686-20.821472-78.288735-6.246442-44.141521 9.994307-111.186661 39.977226-163.240341 18.739325-32.897926 50.804392-69.127288 79.954453-91.198048 32.897926-24.569337 74.9573-44.141521 120.348109-55.801546 29.56649-7.49573 36.645791-7.912159 19.155755-0.832859C441.415209 88.699471 401.854412 114.934526 367.707198 149.914599 321.48353 198.220415 298.99634 255.687678 303.577064 313.9878c1.665718 19.572184 2.082147 19.988613 12.076454 15.824319 17.906466-7.49573 47.056527-10.410736 66.212281-5.830012 40.393656 9.577877 81.203741 43.308662 117.849532 98.277348 25.402196 37.47865 52.05368 54.135828 87.866613 54.135828 77.455876 0 164.906059-87.866612 186.56039-187.809679 0.832859-4.580724 2.082147-9.161448 2.915006-13.742172 0.832859-3.747865 1.665718-3.747865 12.076454-2.915006 6.246442 0.416429 12.492883 1.665718 14.158601 2.498577 2.915006 1.665718 8.328589 17.906466 13.325742 40.810085 2.082147 9.994307 2.915006 22.48719 2.915007 50.804392 0 32.481497-0.416429 39.977227-3.747865 55.385116-5.830012 26.651484-11.660024 43.725092-24.569338 69.543717-27.484343 56.217975-73.708011 101.192355-132.008133 128.676698-33.730785 15.824319-64.546564 24.152908-102.858072 27.484343-22.48719 2.498577-25.402196 2.498577-49.138675 0.41643z m307.324929-408.100854c10.827166-5.413583 17.906466-12.909313 33.314356-35.396503 42.059374-62.880846 59.54941-148.665311 34.147214-170.736072-18.739325-16.240748-62.464416-10.410736-115.767385 15.824319-34.563644 17.073607-68.294429 41.642944-79.121594 57.883693-24.569337 37.06222 5.413583 100.775925 60.382269 127.843839 23.320049 12.076454 49.138674 13.742172 67.04514 4.580724z m-40.810085-7.079301c-22.07076-5.413583-47.889386-21.654331-55.801546-35.812932-12.909313-22.48719 0-37.47865 59.96584-70.376576 80.370882-44.141521 89.94876-50.804392 94.945913-65.379422 1.665718-4.997153 4.164294-8.745018 5.413583-8.745019 3.331436 0 7.079301 16.240748 5.830012 25.818626-2.915006 23.320049-18.739325 71.625864-32.481496 99.110207-9.577877 19.155754-20.821472 35.396503-31.648638 45.390809-14.158601 12.909313-24.985767 14.99146-46.223668 9.994307zM252.772672 164.0732c2.082147-2.915006 3.747865-5.830012 3.747865-6.246441 0-0.832859-2.498577-4.997153-5.413583-9.161448-8.328589-12.076454-22.07076-42.059374-29.150061-63.297275-10.827166-32.481497-12.492883-53.719398-4.580724-56.217975 6.662871-2.082147 44.141521 20.405043 85.784465 50.804392l19.155755 14.158601 13.742171-9.161448c7.49573-4.997153 13.742172-9.577877 13.325743-10.410736-0.416429-2.082147-19.572184-17.073607-39.977227-30.815778C272.761285 19.155754 251.523383 10.827166 229.452623 12.492883c-29.98292 2.082147-34.980073 31.232208-15.407889 89.532331 4.997153 14.99146 22.903619 52.886539 29.56649 63.297275 3.331436 4.997153 4.580724 4.997153 9.161448-1.249289z m611.318422 64.546564c-0.416429-1.665718-0.416429-3.747865 0.832859-4.580724 2.915006-2.915006 8.328589-0.832859 8.745018 2.915006 0.416429 3.331436 0.416429 3.331436-1.249288 0-1.249288-2.915006-1.665718-2.915006-1.665718-0.832859 0 4.164294-5.413583 6.246442-6.662871 2.498577z m2.498577-2.915006c-0.416429-1.249288-0.832859-0.832859-1.249289 1.249288 0 2.082147 0.416429 2.915006 0.832859 2.498577s0.832859-2.498577 0.41643-3.747865z" fill="#FF0000" p-id="17152"></path></svg>