<?xml version="1.0" standalone="no"?><!DOCTYPE svg PUBLIC "-//W3C//DTD SVG 1.1//EN" "http://www.w3.org/Graphics/SVG/1.1/DTD/svg11.dtd"><svg t="1757832278992" class="icon" viewBox="0 0 1128 1024" version="1.1" xmlns="http://www.w3.org/2000/svg" p-id="6403" xmlns:xlink="http://www.w3.org/1999/xlink" width="220.3125" height="200"><path d="M1119.20207 519.750317 563.884846 0 8.567623 518.228436c-10.878626 10.145869-11.470468 27.196565-1.3246 38.075191 10.117686 10.850443 27.224748 11.442285 38.075191 1.296417L563.82848 73.698464l518.594815 485.367094c5.213849 4.847471 11.808664 7.271206 18.403479 7.271206 7.158474 0 14.345131-2.84648 19.643529-8.53944C1130.616172 546.946882 1130.108879 529.896185 1119.20207 519.750317L1119.20207 519.750317zM949.766059 530.431662c-14.880608 0-26.914736 12.062311-26.914736 26.914736l0 412.795949-215.402433 0L707.448891 682.986074l-287.184455 0 0 287.156272L204.918368 970.142346 204.918368 557.346397c0-14.852425-12.034128-26.914736-26.914736-26.914736-14.880608 0-26.914736 12.062311-26.914736 26.914736l0 466.653603 323.061375 0L474.150272 736.843728l179.469147 0 0 287.156272 323.089558 0L976.708978 557.346397C976.680795 542.493973 964.618484 530.431662 949.766059 530.431662L949.766059 530.431662zM761.334728 144.550449l161.516596 0 0 143.592228c0 14.852425 12.034128 26.914736 26.914736 26.914736 14.852425 0 26.942918-12.062311 26.942918-26.914736L976.708978 90.692795l-215.37425 0c-14.880608 0-26.971101 12.034128-26.971101 26.914736S746.425937 144.550449 761.334728 144.550449L761.334728 144.550449zM761.334728 144.550449" p-id="6404"></path></svg>