<svg xmlns="http://www.w3.org/2000/svg" width="123" height="44" fill="none" aria-label="TutaLogoWithText"><path fill="#410002" d="M104.984 25.564c0-3.872 2.948-8.492 7.964-8.492h3.696l-1.32 4.224c-1.584 5.016-4.004 8.184-6.996 8.184-2.156 0-3.344-1.496-3.344-3.916m-18.788-2.112c-1.848 5.94.968 10.032 7.348 10.032.924 0 2.156-.088 2.552-.176.176-.044.264-.132.352-.352l1.1-3.696c.044-.22 0-.396-.308-.352-.968.088-1.848.176-2.64.176-3.212 0-4.532-1.716-3.564-4.796l2.244-7.216h6.512c.176 0 .352-.088.396-.308l1.144-3.74c.044-.22-.044-.352-.308-.352H94.6l.836-2.728c.044-.22 0-.308-.132-.44l-3.388-3.08c-.176-.176-.396-.132-.484.132zm-22.44.132c-1.892 6.028 1.144 9.988 5.896 9.988 2.728 0 4.884-1.32 6.424-3.476l-.044 2.772c0 .264.132.352.352.352h3.036c.22 0 .352-.088.396-.308l6.116-19.844c.088-.264-.044-.396-.264-.396h-4.356c-.22 0-.352.088-.396.308l-2.596 8.36c-1.628 5.192-4.18 8.14-6.864 8.14s-3.828-2.112-2.816-5.368l3.432-11.044c.088-.264-.044-.396-.264-.396h-4.356c-.22 0-.352.088-.396.308zm-14.828-.132c-1.848 5.94.968 10.032 7.348 10.032.924 0 2.156-.088 2.552-.176.176-.044.264-.132.352-.352l1.1-3.696c.044-.22 0-.396-.308-.352-.968.088-1.848.176-2.64.176-3.212 0-4.532-1.716-3.564-4.796l2.244-7.216h6.468c.176 0 .352-.088.396-.308l1.144-3.74c.044-.22-.044-.352-.308-.352h-6.424l.836-2.728c.044-.22 0-.308-.132-.44l-3.388-3.08c-.176-.176-.396-.132-.484.132zm57.816 10.12c2.552 0 4.664-1.144 6.248-3.476v2.772c0 .22.132.352.352.352h3.036c.22 0 .352-.088.396-.308l6.16-19.888c.044-.22-.044-.396-.264-.396h-9.592c-9.372 0-13.024 8.14-13.024 13.42 0 4.62 2.86 7.524 6.688 7.524"></path><path fill="#850122" d="M3.476.44 11 8.052c.176.176.352.22.616.22H43.34c.22 0 .352-.264.132-.484L36.036.264C35.86.088 35.684 0 35.332 0H3.652c-.308 0-.352.264-.176.44m-1.1 43.208c-.044.176.044.352.264.352h31.284c.308 0 .44-.132.528-.396l9.46-30.536c.088-.308-.044-.396-.308-.396H12.232c-.264 0-.352.088-.44.308zM0 34.848c0 .352.44.352.528 0L7.7 11.484c.088-.264.088-.44-.132-.66L.44 3.74C.264 3.564 0 3.652 0 3.872z"></path></svg>