<?xml version="1.0" standalone="no"?><!DOCTYPE svg PUBLIC "-//W3C//DTD SVG 1.1//EN" "http://www.w3.org/Graphics/SVG/1.1/DTD/svg11.dtd"><svg t="1757665160366" class="icon" viewBox="0 0 1024 1024" version="1.1" xmlns="http://www.w3.org/2000/svg" p-id="17558" xmlns:xlink="http://www.w3.org/1999/xlink" width="200" height="200"><path d="M953.19160156 230.07412109c-32.49228516 14.41054687-67.46660156 24.16201172-104.11699218 28.54072266 37.45986328-22.43935547 66.20537109-57.94189453 79.70361328-100.26914062-35.04902344 20.7703125-73.79912109 35.84091797-115.16044922 43.9453125-32.99941406-35.22919922-80.15888672-57.23701172-132.32988281-57.23701172-100.06523438 0-181.24189453 81.19599609-181.24189454 181.28759765 0 14.23388672 1.546875 28.03623047 4.66259766 41.28310547-150.66826172-7.57353516-284.21806641-79.67724609-373.696875-189.44121094-15.60058594 26.86816406-24.54345703 57.99550781-24.54345703 91.22695313 0 62.83476563 32.01503906 118.35087891 80.66777344 150.89326172-29.71054687-0.90878906-57.69316406-9.13974609-82.15927735-22.640625v2.23154297c0 87.88271484 62.48144531 161.15097656 145.4765625 177.76669921-15.22353516 4.25917969-31.22666016 6.38525391-47.79052734 6.38525391-11.67539062 0-23.07216797-1.09072266-34.09013672-3.21591797 23.04492188 72 89.98769531 124.45488281 169.33183594 125.84619141-62.04462891 48.65449219-140.23388672 77.62675781-225.1538086 77.62675781-14.63818359 0-29.09882813-0.80947266-43.25800781-2.50576172 80.23710938 51.38789062 175.54130859 81.42363281 277.90927734 81.42363281 333.52998047 0 515.83535156-276.21386719 515.83535157-515.8265625 0-7.87851563-0.15644531-15.72539062-0.48076172-23.45449218 35.42695312-25.57792969 66.20361328-57.51914062 90.4359375-93.85839844z" fill="#2c2c2c" p-id="17559"></path></svg>