<?xml version="1.0" standalone="no"?><!DOCTYPE svg PUBLIC "-//W3C//DTD SVG 1.1//EN" "http://www.w3.org/Graphics/SVG/1.1/DTD/svg11.dtd"><svg t="1761103953882" class="icon" viewBox="0 0 1024 1024" version="1.1" xmlns="http://www.w3.org/2000/svg" p-id="6431" xmlns:xlink="http://www.w3.org/1999/xlink" width="200" height="200"><path d="M240.64 176.128c-36.194304 0-65.536 29.341696-65.536 65.536v536.576c0 36.194304 29.341696 65.536 65.536 65.536h536.576c36.194304 0 65.536-29.341696 65.536-65.536V241.664c0-36.194304-29.341696-65.536-65.536-65.536H240.64z m0-65.536h536.576c72.388608 0 131.072 58.683392 131.072 131.072v536.576c0 72.388608-58.683392 131.072-131.072 131.072H240.64c-72.388608 0-131.072-58.683392-131.072-131.072V241.664c0-72.388608 58.683392-131.072 131.072-131.072z m48.883712 491.52h-52.199424V385.661952h43.95008l90.149888 121.79968h2.849792V385.661952h52.200448V602.112h-43.650048l-90.44992-122.999808h-2.850816V602.112z m212.550656 46.799872h-49.800192l77.25056-276.299776h49.949696l-77.400064 276.299776zM743.424 602.112l-13.500416-47.550464h-70.649856L645.3248 602.112h-54.59968l72.599552-216.450048h67.350528L803.424256 602.112H743.424z m-49.95072-167.70048l-23.699456 80.550912h49.800192l-23.24992-80.550912h-2.849792z" fill="#D0021B" p-id="6432"></path></svg>