<?xml version="1.0" standalone="no"?><!DOCTYPE svg PUBLIC "-//W3C//DTD SVG 1.1//EN" "http://www.w3.org/Graphics/SVG/1.1/DTD/svg11.dtd"><svg t="1762152085850" class="icon" viewBox="0 0 1024 1024" version="1.1" xmlns="http://www.w3.org/2000/svg" p-id="5679" xmlns:xlink="http://www.w3.org/1999/xlink" width="200" height="200"><path d="M512 0C229.205333 0 0 229.205333 0 512s229.205333 512 512 512 512-229.205333 512-512S794.794667 0 512 0z m-6.485333 812.586667a43.306667 43.306667 0 1 1 0-86.613334 43.306667 43.306667 0 0 1 0 86.613334z m185.770666-421.546667c-2.474667 46.250667-16.682667 82.773333-87.68 153.770667-36.010667 36.010667-58.709333 62.976-61.013333 86.698666a36.010667 36.010667 0 0 1-35.797333 32.469334c-1.194667 0-2.389333-0.085333-3.584-0.170667a36.053333 36.053333 0 0 1-32.298667-39.424c4.906667-49.92 41.472-90.197333 81.792-130.474667 64.512-64.512 65.578667-84.992 66.688-106.709333a92.586667 92.586667 0 0 0-26.410667-69.12 112.341333 112.341333 0 0 0-81.194666-34.56h-0.170667a107.690667 107.690667 0 0 0-107.306667 107.52 35.968 35.968 0 1 1-72.021333 0 178.346667 178.346667 0 0 1 52.394667-126.848 178.261333 178.261333 0 0 1 126.72-52.693333 184.746667 184.746667 0 0 1 133.802666 57.002666 163.413333 163.413333 0 0 1 46.08 122.496z" fill="#1890FF" p-id="5680"></path></svg>