<?xml version="1.0" standalone="no"?><!DOCTYPE svg PUBLIC "-//W3C//DTD SVG 1.1//EN" "http://www.w3.org/Graphics/SVG/1.1/DTD/svg11.dtd"><svg t="1757751548427" class="icon" viewBox="0 0 1024 1024" version="1.1" xmlns="http://www.w3.org/2000/svg" p-id="2656" xmlns:xlink="http://www.w3.org/1999/xlink" width="200" height="200"><path d="M56.888889 512c113.777778-227.555556 267.377778-341.333333 455.111111-341.333333s341.333333 113.777778 455.111111 341.333333c-113.777778 227.555556-261.688889 341.333333-455.111111 341.333333s-341.333333-113.777778-455.111111-341.333333z m455.111111 284.444444c159.288889 0 290.133333-91.022222 392.533333-284.444444-102.4-193.422222-233.244444-284.444444-392.533333-284.444444S221.866667 318.577778 119.466667 512c102.4 193.422222 233.244444 284.444444 392.533333 284.444444z" fill="#8a8a8a" p-id="2657"></path><path d="M512 739.555556c-125.155556 0-227.555556-102.4-227.555556-227.555556s102.4-227.555556 227.555556-227.555556 227.555556 102.4 227.555556 227.555556-102.4 227.555556-227.555556 227.555556z m0-56.888889c96.711111 0 170.666667-73.955556 170.666667-170.666667s-73.955556-170.666667-170.666667-170.666667-170.666667 73.955556-170.666667 170.666667 73.955556 170.666667 170.666667 170.666667z" fill="#8a8a8a" p-id="2658"></path></svg>