<?xml version="1.0" standalone="no"?><!DOCTYPE svg PUBLIC "-//W3C//DTD SVG 1.1//EN" "http://www.w3.org/Graphics/SVG/1.1/DTD/svg11.dtd"><svg t="1761041110177" class="icon" viewBox="0 0 1160 1024" version="1.1" xmlns="http://www.w3.org/2000/svg" p-id="13034" xmlns:xlink="http://www.w3.org/1999/xlink" width="226.5625" height="200"><path d="M243.271932 48.590419c111.564938-40.284114 256.39039-97.401647 428.265407 28.036351L560.494817 458.571249S478.82371 388.219166 362.78921 381.834076s-232.823603 54.621543-232.823604 54.621543C174.138821 282.981272 243.271932 48.590419 243.271932 48.590419z" fill="#FF5B00" p-id="13035"></path><path d="M113.306326 501.525492c111.564938-40.226068 256.39039-97.343601 428.265406 28.094396l-111.042521 382.118619s-81.729153-70.526222-197.705608-76.911312S0 889.448738 0 889.448738C44.23126 735.974391 113.306326 501.525492 113.306326 501.525492z" fill="#00B7F7" p-id="13036"></path><path d="M726.855437 117.491346c46.437019 29.023137 180.465864 133.796661 434.070034 21.18689-13.408689 41.851363-112.377586 385.485303-112.377586 385.485303s-107.675837 47.017482-188.47625 53.402571-190.682009-32.563959-240.892035-78.362469c22.11563-79.29121 107.675837-381.712295 107.675837-381.712295z" fill="#80C600" p-id="13037"></path><path d="M598.979497 563.054542c46.437019 29.023137 180.465864 133.506429 434.070033 21.18689-13.408689 41.851363-112.435632 385.485303-112.435632 385.485302s-107.617791 47.017482-188.418204 53.402572-190.682009-32.563959-240.892035-78.362469C513.419289 865.649766 598.979497 563.054542 598.979497 563.054542z" fill="#FFC100" p-id="13038"></path></svg>