<?xml version="1.0" standalone="no"?><!DOCTYPE svg PUBLIC "-//W3C//DTD SVG 1.1//EN" "http://www.w3.org/Graphics/SVG/1.1/DTD/svg11.dtd"><svg t="1761041125953" class="icon" viewBox="0 0 1706 1024" version="1.1" xmlns="http://www.w3.org/2000/svg" p-id="14090" xmlns:xlink="http://www.w3.org/1999/xlink" width="333.203125" height="200"><path d="M469.265067 625.698133c-8.260267 0-14.711467 3.874133-16.896 10.069334-1.416533 3.754667-1.809067 6.314667-2.065067 14.199466h-11.229867v7.748267h11.229867v55.9104h9.1648v-55.9104h15.479467v-7.748267h-15.479467c0-6.980267 0-7.492267 1.160533-10.205866 1.416533-3.9936 5.546667-6.058667 12.1344-6.058667 1.9456 0 3.242667 0.119467 5.9392 0.887467v-8.004267a60.706133 60.706133 0 0 0-9.437866-0.887467z m-448.648534 1.792v86.135467h9.1648V638.464l28.142934 75.1616h7.3728l27.869866-75.1616v75.1616h10.461867v-86.135467H87.893333l-25.4464 68.846934-25.821866-68.846934z m103.253334 0v10.990934h10.717866v-10.990934z m377.941333 5.6832l-9.301333 0.785067-0.392534 16.008533h-11.229866v7.748267h11.229866v38.3488c0 12.8 6.1952 19.370667 18.210134 19.370667 2.9696 0 5.034667-0.119467 9.4208-0.768v-7.8848c-3.4816 0.648533-5.290667 0.768-7.611734 0.768-6.843733 0-10.325333-3.345067-10.325333-9.9328v-39.901867h14.336v-7.748267h-14.336z m-259.959467 14.984534a16.6912 16.6912 0 0 0-12.509866 5.546666c-2.321067 2.850133-3.498667 4.778667-6.587734 11.093334v-14.848h-8.6528v63.675733h9.949867v-33.706667c0.256-13.550933 9.403733-23.108267 21.418667-22.0672v-9.437866a49.800533 49.800533 0 0 0-3.618134-0.256z m36.6592 0.119466c-17.032533 0-28.791467 13.568-28.791466 33.3312 0 20.2752 11.093333 33.6896 27.7504 33.6896 17.169067 0 29.44-13.687467 29.44-32.802133 0-20.7872-11.093333-34.218667-28.398934-34.218667z m61.149867 0c-14.455467 0-24.0128 7.509333-24.0128 18.7392 0 9.045333 6.331733 15.496533 17.169067 17.578667l13.448533 2.423467c7.2192 1.416533 10.9568 4.6592 10.9568 9.8304 0 6.1952-6.058667 10.325333-14.967467 10.325333-5.9392 0-11.997867-1.809067-15.616-4.778667-2.065067-1.6896-3.106133-3.618133-4.1472-7.236266l-9.403733 1.9456c1.536 5.563733 3.208533 8.260267 6.570667 11.093333 5.4272 4.778667 12.663467 7.1168 21.691733 7.1168 15.752533 0 26.197333-7.8848 26.197333-19.5072 0-10.325333-6.314667-16.520533-19.3536-18.8416l-12.526933-2.218667c-6.7072-1.28-9.9328-4.113067-9.9328-8.891733 0-5.6832 5.410133-9.4208 13.687467-9.4208 8.123733 0 13.277867 3.089067 16.264533 9.9328l9.045333-1.928533c-3.106133-10.581333-11.776-16.162133-25.070933-16.162134z m65.723733 0c-17.0496 0-28.791467 13.568-28.791466 33.3312 0 20.2752 11.1104 33.6896 27.767466 33.6896 17.169067 0 29.422933-13.687467 29.422934-32.802133 0-20.7872-11.093333-34.218667-28.398934-34.218667z m-229.12 0.017067c-16.520533 0-27.357867 13.4144-27.357866 33.570133 0 20.258133 10.581333 33.450667 26.845866 33.450667 7.099733 0 12.663467-2.2016 17.186134-6.8608 4.130133-4.130133 5.922133-7.850667 7.4752-15.616l-8.9088-1.536c-2.065067 10.4448-7.492267 15.872-15.496534 15.872-10.581333 0-16.776533-9.557333-16.776533-25.565867 0-15.496533 6.4512-25.173333 16.913067-25.173333 4.9152 0 9.1648 2.167467 12.014933 6.058667 1.672533 2.4576 2.56 4.778667 3.345067 9.6768l8.9088-1.655467c-2.577067-14.472533-11.093333-22.2208-24.149334-22.2208z m-52.0192 1.672533v63.658667h9.949867v-63.658667z m153.873067 6.468267c5.1712 0 10.205867 2.56 13.431467 6.826667 3.089067 4.386133 4.522667 10.069333 4.522666 18.7392 0 15.752533-6.724267 25.173333-17.834666 25.173333-11.229867 0-17.664-9.301333-17.664-25.7024 0-7.748267 1.536-13.943467 4.386133-18.090667a16.503467 16.503467 0 0 1 13.1584-6.946133z m126.890667 0c5.154133 0 10.1888 2.56 13.4144 6.826667 3.106133 4.386133 4.522667 10.069333 4.522666 18.7392 0 15.752533-6.7072 25.173333-17.8176 25.173333-11.229867 0-17.681067-9.301333-17.681066-25.7024 0-7.748267 1.536-13.943467 4.386133-18.090667a16.5376 16.5376 0 0 1 13.175467-6.946133z m-385.194667 84.138667L90.333867 998.912h47.633066l46.882134-189.781333 51.5072 189.781333h48.810666l68.932267-258.338133h-41.0624l-48.810667 188.245333-51.5072-188.245333H165.461333L118.954667 928.8192l-49.578667-188.245333z m347.426133 0v44.936533h43.008v-44.936533z m387.345067 0v93.354666c-10.461867-22.869333-26.7264-33.706667-51.131733-33.706666-20.138667 0-36.4032 6.980267-48.401067 20.923733-17.0496 19.3536-26.7264 48.418133-26.7264 79.786667 0 29.44 8.891733 60.416 21.674667 77.4656 12.3904 15.872 30.208 24.405333 51.131733 24.405333 27.118933 0 44.151467-13.175467 56.1664-42.222933v38.3488h40.277333V740.573867z m577.501867 63.522133c-26.7264 0-45.312 6.570667-58.487467 20.906667-9.6768 10.461867-15.104 24.797867-15.104 39.901866 0 30.993067 18.193067 48.810667 57.7024 56.149334l34.850133 6.997333c12.8 2.304 20.923733 9.659733 20.923734 18.944 0 15.121067-14.336 23.637333-38.741334 23.637333-23.227733 0-34.082133-6.1952-42.205866-23.227733l-40.2944 7.748267c4.6592 14.711467 9.693867 22.084267 19.7632 29.832533 15.872 11.605333 36.795733 17.800533 61.201066 17.800533 50.7392 0 83.285333-24.0128 83.285334-61.952 0-30.208-16.298667-49.2032-48.059734-55.3984l-41.045333-8.533333c-19.370667-3.857067-27.4944-10.4448-27.4944-21.674667 0-12.3904 13.175467-20.5312 33.6896-20.5312 19.7632 0 29.815467 6.1952 34.850133 21.674667l38.741334-8.123733c-8.925867-29.047467-34.082133-44.151467-73.5744-44.151467z m-787.848534 0c-25.941333 0-42.5984 13.568-58.487466 48.0256v-44.151467H446.634667V998.912h42.990933V900.949333c0-14.728533 2.321067-26.350933 6.980267-35.6352 7.355733-14.336 20.906667-23.637333 35.242666-23.637333 18.210133 0 29.815467 14.728533 29.815467 37.956267v119.296h43.008v-123.153067c0-19.7632-2.338133-32.1536-8.1408-43.383467-8.533333-16.657067-30.208-28.279467-52.292267-28.279466z m366.455467 0c-52.6848 0-89.480533 40.669867-89.480533 98.7648 0 24.405333 6.1952 46.08 18.961066 64.682667 15.496533 23.2448 38.741333 35.242667 68.181334 35.242666 53.4528 0 90.624-40.6528 90.624-99.157333 0-24.7808-4.642133-42.205867-15.872-60.416-17.0496-26.7264-40.277333-39.1168-72.413867-39.1168z m-543.453867 3.874133V998.912h43.008V807.970133z m630.186667 0l58.88 190.941867h39.901867l34.082133-134.007467 34.474667 134.007467h38.724266l56.149334-190.941867h-36.4032l-36.778667 128.597334-33.6896-128.597334h-39.133867l-32.529066 128.597334-37.956267-128.597334zM715.093333 837.034667c11.246933 0 21.7088 5.034667 29.457067 14.336 7.355733 8.891733 10.069333 18.193067 10.069333 34.850133v32.512c0 27.511467-17.834667 48.810667-40.686933 48.810667-25.941333 0-39.8848-22.459733-39.8848-64.290134 0-42.5984 14.711467-66.218667 41.045333-66.218666z m195.618134 2.321066c27.4944 0 42.5984 22.0672 42.5984 63.1296 0 41.813333-15.496533 65.058133-43.383467 65.058134-27.511467 0-43.008-23.2448-43.008-64.290134s15.906133-63.8976 43.793067-63.8976z" p-id="14091"></path><path d="M1641.335467 737.792c-18.756267 0-32.187733 8.379733-41.984 26.845867v-24.064h-29.934934v184.661333h31.6416v-66.030933c8.942933 15.394133 20.6848 22.101333 38.0416 22.101333 15.940267 0 27.6992-5.597867 36.078934-17.066667 10.6496-14.267733 16.247467-33.570133 16.247466-55.671466 0-20.701867-5.051733-38.621867-14.848-52.616534-8.669867-12.288-20.138667-18.176-35.242666-18.176z m-196.898134 2.781867l39.714134 66.8672-45.892267 71.0656h26.88l31.880533-50.346667 29.098667 50.346667h35.805867l-46.165334-78.062934 38.894934-59.869866h-26.0096l-25.770667 40.567466-22.6304-40.567466z m186.2656 22.664533c17.6128 0 27.6992 17.339733 27.6992 47.5648 0 28.808533-10.3424 45.8752-27.409066 45.8752-17.3568 0-29.934933-14.5408-29.934934-34.679467v-19.592533c0-22.664533 12.288-39.168 29.6448-39.168z" fill="#ED671C" p-id="14092"></path><path d="M1440.3072 114.517333c-151.04 62.446933-223.658667 27.3408-289.109333-16.708266l-74.513067 258.440533c65.3824 44.305067 144.3328 80.725333 289.2288 15.854933z" fill="#91C300" p-id="14093"></path><path d="M949.2992 633.856c-65.604267-44.151467-136.9088-80.469333-288.3072-17.8688l74.1376-258.935467c151.415467-62.600533 224.170667-27.170133 289.706667 17.237334L949.2992 633.856z" fill="#00B4F1" p-id="14094"></path><path d="M1037.431467 328.362667c-39.492267-26.589867-81.9712-51.421867-142.2848-51.882667-39.799467-0.290133-87.176533 11.008-147.319467 35.874133L822.357333 54.101333C973.687467-8.482133 1046.357333 26.9312 1111.8592 71.338667z" fill="#F8682C" p-id="14095"></path><path d="M1064.123733 400.042667c65.518933 44.117333 138.2912 79.240533 289.4848 16.759466l-74.530133 257.416534c-151.210667 62.532267-223.8464 27.118933-289.28-17.271467z" fill="#FFC300" p-id="14096"></path></svg>