<?xml version="1.0" standalone="no"?><!DOCTYPE svg PUBLIC "-//W3C//DTD SVG 1.1//EN" "http://www.w3.org/Graphics/SVG/1.1/DTD/svg11.dtd"><svg t="1758522216532" class="icon" viewBox="0 0 1024 1024" version="1.1" xmlns="http://www.w3.org/2000/svg" p-id="20564" xmlns:xlink="http://www.w3.org/1999/xlink" width="200" height="200"><path d="M256 128h512v257.728c22.208 2.496 43.648 7.424 64 14.656V64H192v542.976l64-112V128z m0 496L210.304 704 64 960h512l-146.304-256-36.544-64L320 512 256 624zM356.032 704L320 640.96 283.968 704l-109.696 192h291.456l-109.696-192z m379.968 128a160 160 0 1 0 0-320 160 160 0 0 0 0 320z m0 64a224 224 0 1 0 0-448 224 224 0 0 0 0 448z" fill="#ffffff" p-id="20565"></path></svg>