<?xml version="1.0" standalone="no"?><!DOCTYPE svg PUBLIC "-//W3C//DTD SVG 1.1//EN" "http://www.w3.org/Graphics/SVG/1.1/DTD/svg11.dtd"><svg t="1758509265122" class="icon" viewBox="0 0 1024 1024" version="1.1" xmlns="http://www.w3.org/2000/svg" p-id="6782" xmlns:xlink="http://www.w3.org/1999/xlink" width="200" height="200"><path d="M846.634667 298.154667c-24.618667 10.922667-51.157333 18.346667-78.933334 21.632a137.685333 137.685333 0 0 0 60.416-76.032 274.773333 274.773333 0 0 1-87.338666 33.322666 137.514667 137.514667 0 0 0-234.325334 125.44 390.4 390.4 0 0 1-283.434666-143.701333 137.557333 137.557333 0 0 0 42.581333 183.637333 137.6 137.6 0 0 1-62.336-17.194666v1.706666a137.557333 137.557333 0 0 0 110.336 134.826667 136.362667 136.362667 0 0 1-62.122667 2.389333 137.514667 137.514667 0 0 0 128.426667 95.488 275.84 275.84 0 0 1-170.752 58.88c-11.093333 0-22.058667-0.597333-32.810667-1.877333a389.589333 389.589333 0 0 0 210.773334 61.738667c253.013333 0 391.296-209.493333 391.296-391.253334 0-5.973333-0.128-11.946667-0.341334-17.792a278.784 278.784 0 0 0 68.565334-71.210666z" p-id="6783" fill="#ffffff"></path></svg>